HIERARCHY
ROOT Hips
{
	OFFSET 0.000000 0.000000 0.000000
	CHANNELS 6 Xposition Yposition Zposition Zrotation Yrotation Xrotation 
	JOINT LHipJoint
	{
		OFFSET 0.000000 0.000000 0.000000
		CHANNELS 3 Zrotation Yrotation Xrotation
		JOINT LeftUpLeg
		{
			OFFSET 1.363060 -1.794630 0.839290
			CHANNELS 3 Zrotation Yrotation Xrotation
			JOINT LeftLeg
			{
				OFFSET 2.448110 -6.726130 0.000000
				CHANNELS 3 Zrotation Yrotation Xrotation
				JOINT LeftFoot
				{
					OFFSET 2.562200 -7.039590 0.000000
					CHANNELS 3 Zrotation Yrotation Xrotation
					JOINT LeftToeBase
					{
						OFFSET 0.157640 -0.433110 2.322550
						CHANNELS 3 Zrotation Yrotation Xrotation
						End Site
						{
							OFFSET 0.000000 0.000000 0.000000
						}
					}
				}
			}
		}
	}
	JOINT RHipJoint
	{
		OFFSET 0.000000 0.000000 0.000000
		CHANNELS 3 Zrotation Yrotation Xrotation
		JOINT RightUpLeg
		{
			OFFSET -1.305520 -1.794630 0.839290
			CHANNELS 3 Zrotation Yrotation Xrotation
			JOINT RightLeg
			{
				OFFSET -2.542530 -6.985550 0.000000
				CHANNELS 3 Zrotation Yrotation Xrotation
				JOINT RightFoot
				{
					OFFSET -2.568260 -7.056230 0.000000
					CHANNELS 3 Zrotation Yrotation Xrotation
					JOINT RightToeBase
					{
						OFFSET -0.164730 -0.452590 2.363150
						CHANNELS 3 Zrotation Yrotation Xrotation
						End Site
						{
							OFFSET 0.000000 0.000000 0.000000
						}
					}
				}
			}
		}
	}
	JOINT LowerBack
	{
		OFFSET 0.000000 0.000000 0.000000
		CHANNELS 3 Zrotation Yrotation Xrotation
		JOINT Spine
		{
			OFFSET 0.028270 2.035590 -0.193380
			CHANNELS 3 Zrotation Yrotation Xrotation
			JOINT Spine1
			{
				OFFSET 0.056720 2.048850 -0.042750
				CHANNELS 3 Zrotation Yrotation Xrotation
				JOINT Neck
				{
					OFFSET 0.000000 0.000000 0.000000
					CHANNELS 3 Zrotation Yrotation Xrotation
					JOINT Neck1
					{
						OFFSET -0.054170 1.746240 0.172020
						CHANNELS 3 Zrotation Yrotation Xrotation
						JOINT Head
						{
							OFFSET 0.104070 1.761360 -0.123970
							CHANNELS 3 Zrotation Yrotation Xrotation
							End Site
							{
								OFFSET 0.000000 0.000000 0.000000
							}
						}
					}
				}
				JOINT LeftShoulder
				{
					OFFSET 0.000000 0.000000 0.000000
					CHANNELS 3 Zrotation Yrotation Xrotation
					JOINT LeftArm
					{
						OFFSET 3.362410 1.200890 -0.311210
						CHANNELS 3 Zrotation Yrotation Xrotation
						JOINT LeftForeArm
						{
							OFFSET 4.983000 -0.000000 -0.000000
							CHANNELS 3 Zrotation Yrotation Xrotation
							JOINT LeftHand
							{
								OFFSET 3.483560 -0.000000 -0.000000
								CHANNELS 3 Zrotation Yrotation Xrotation
								JOINT LeftFingerBase
								{
									OFFSET 0.000000 0.000000 0.000000
									CHANNELS 3 Zrotation Yrotation Xrotation
									JOINT LeftHandIndex1
									{
										OFFSET 0.715260 -0.000000 -0.000000
										CHANNELS 3 Zrotation Yrotation Xrotation
										End Site
										{
											OFFSET 0.000000 0.000000 0.000000
										}
									}
								}
								JOINT LThumb
								{
									OFFSET 0.000000 0.000000 0.000000
									CHANNELS 3 Zrotation Yrotation Xrotation
									End Site
									{
										OFFSET 0.000000 0.000000 0.000000
									}
								}
							}
						}
					}
				}
				JOINT RightShoulder
				{
					OFFSET 0.000000 0.000000 0.000000
					CHANNELS 3 Zrotation Yrotation Xrotation
					JOINT RightArm
					{
						OFFSET -3.136600 1.374050 -0.404650
						CHANNELS 3 Zrotation Yrotation Xrotation
						JOINT RightForeArm
						{
							OFFSET -5.241900 -0.000000 -0.000000
							CHANNELS 3 Zrotation Yrotation Xrotation
							JOINT RightHand
							{
								OFFSET -3.444170 -0.000000 -0.000000
								CHANNELS 3 Zrotation Yrotation Xrotation
								JOINT RightFingerBase
								{
									OFFSET 0.000000 0.000000 0.000000
									CHANNELS 3 Zrotation Yrotation Xrotation
									JOINT RightHandIndex1
									{
										OFFSET -0.622530 -0.000000 -0.000000
										CHANNELS 3 Zrotation Yrotation Xrotation
										End Site
										{
											OFFSET 0.000000 0.000000 0.000000
										}
									}
								}
								JOINT RThumb
								{
									OFFSET 0.000000 0.000000 0.000000
									CHANNELS 3 Zrotation Yrotation Xrotation
									End Site
									{
										OFFSET 0.000000 0.000000 0.000000
									}
								}
							}
						}
					}
				}
			}
		}
	}
}
MOTION
Frames: 4
Frame Time: 0.008333
8.395426 16.543874 -29.066062 -4.135427 -5.261980 7.025435 -3.888272 0.271839 1.644937 -15.705706 10.208134 -6.816054 3.512913 12.106380 36.513810 4.862018 7.219663 -44.413342 0.224600 3.050900 8.420600 1.000897 0.423162 -1.446734 1.101640 9.678584 -30.139367 -7.719940 -16.190485 51.951457 -0.011601 -7.068243 -12.140001 -4.767600 13.117200 -39.809000 5.256209 5.199590 1.007687 0.429785 7.030684 -5.077913 0.291943 3.007514 -0.234324 4.679981 -7.132157 -9.784156 3.727485 -10.470206 14.019257 -1.573900 -4.589000 4.394000 10.003669 -2.181176 3.562579 -98.929245 24.335385 30.607777 50.381755 -53.807223 -21.292144 -1.216082 2.075512 -24.104667 12.124870 15.147593 2.765400 -7.125000 0.000000 0.000000 -13.380200 42.549500 0.825100 -7.960083 1.488197 -1.400856 69.666259 46.037540 19.321271 -139.836427 48.498840 -100.343676 0.422975 0.175666 -56.818942 -20.668517 -23.019847 8.441500 7.125000 0.000000 0.000000 8.371800 -53.912400 -1.844200 
8.242837 16.504827 -28.986911 -4.608987 -6.097424 6.948579 -3.855254 0.309307 1.660633 -15.015285 10.191794 -6.509199 3.628788 12.265597 37.109313 4.933625 8.305261 -45.262371 0.160200 2.578400 7.107200 0.982886 0.399099 -1.441936 2.916443 7.847471 -29.954418 -7.589708 -16.111833 51.505779 -0.056422 -7.991841 -14.337571 -4.485900 12.780400 -38.551800 5.249124 5.389323 1.090116 0.547478 7.289862 -5.007913 0.495926 3.151885 -0.194631 4.398828 -7.026343 -9.970513 3.739544 -10.306409 14.106697 -1.531000 -4.511100 4.484100 10.066300 -2.296012 3.632700 -99.555905 24.319373 30.327599 46.769093 -52.178077 -18.771794 -1.230643 2.111283 -23.019335 11.083329 15.912683 2.682700 -7.125000 0.000000 0.000000 -14.457300 43.177700 0.665000 -8.019839 1.632276 -1.465920 71.873393 44.485039 21.132199 -138.376406 49.158017 -99.292253 0.421999 0.186665 -56.730356 -21.492989 -23.615922 9.019500 7.125000 0.000000 0.000000 7.741200 -54.689700 -1.850900 
8.091201 16.472236 -28.909876 -5.171412 -6.996652 6.894175 -3.814656 0.348481 1.670162 -14.235100 10.247315 -6.306510 3.785566 12.472000 37.875089 4.963154 9.391188 -45.950017 0.099400 2.033000 5.596900 0.964136 0.374728 -1.438928 4.691296 6.380638 -29.765670 -7.469467 -16.025772 51.077975 -0.130645 -8.509894 -16.202838 -4.174500 12.389000 -37.122400 5.346339 5.563298 1.265435 0.674113 7.538978 -4.940357 0.663046 3.287491 -0.184955 4.180877 -6.879204 -10.174426 3.703785 -10.082386 14.106805 -1.509400 -4.408500 4.542000 10.114376 -2.398431 3.696345 -100.156752 24.488032 29.958798 43.766217 -50.613692 -16.722995 -1.244128 2.139079 -21.783521 9.985051 16.401520 2.516000 -7.125000 0.000000 0.000000 -15.514600 43.531000 0.577200 -8.047245 1.762925 -1.507097 73.740810 43.266152 22.773747 -136.662288 49.923601 -98.006999 0.419499 0.195988 -56.756338 -22.376607 -24.337892 9.689800 7.125000 0.000000 0.000000 7.091100 -55.616600 -1.854300 
7.940835 16.447157 -28.835486 -5.815011 -7.927615 6.879166 -3.764379 0.385351 1.668229 -13.367188 10.332130 -6.256530 4.002655 12.745911 38.887723 4.935330 10.470455 -46.423455 0.048100 1.415500 3.892800 0.944272 0.350846 -1.435803 6.384289 5.297113 -29.550757 -7.359811 -15.933200 50.669334 -0.231236 -8.625506 -17.713169 -3.905300 12.033300 -35.849800 5.540235 5.715943 1.518884 0.804402 7.769862 -4.882168 0.782086 3.410706 -0.211587 4.041623 -6.696744 -10.355636 3.635699 -9.809774 14.011276 -1.505900 -4.286300 4.555200 10.149610 -2.490362 3.756098 -100.705112 24.824691 29.593487 41.216050 -49.116344 -15.016890 -1.242703 2.156980 -20.451044 8.933711 16.382040 2.265400 -7.125000 0.000000 0.000000 -16.391200 43.406800 0.663500 -8.047305 1.880113 -1.534309 75.320235 42.371194 24.259475 -134.750274 50.749831 -96.525334 0.416033 0.206548 -56.959911 -23.379347 -25.167973 10.483300 7.125000 0.000000 0.000000 6.346400 -56.690500 -1.823700 
